<?xml version="1.0" encoding="utf-8"?>
<!-- Generator: Adobe Illustrator 26.5.0, SVG Export Plug-In . SVG Version: 6.00 Build 0)  -->
<svg version="1.1" id="Layer_1" xmlns="http://www.w3.org/2000/svg" xmlns:xlink="http://www.w3.org/1999/xlink" x="0px" y="0px"
	 viewBox="0 0 128 128" style="enable-background:new 0 0 128 128;" xml:space="preserve">
<style type="text/css">
	.st0{fill-rule:evenodd;clip-rule:evenodd;fill:url(#curve6_00000003082445668844528940000014466232754326693556_);}
	.st1{fill-rule:evenodd;clip-rule:evenodd;fill:url(#curve5_00000000215317106710017360000014659859179334492329_);}
	.st2{fill-rule:evenodd;clip-rule:evenodd;fill:url(#curve4_00000155136456272985866310000003156532167985432196_);}
	.st3{fill-rule:evenodd;clip-rule:evenodd;fill:url(#curve3_00000026841831570598200100000015154567411140187804_);}
	.st4{fill-rule:evenodd;clip-rule:evenodd;fill:url(#curve2_00000044169861153212657490000017299354979390845346_);}
	.st5{fill-rule:evenodd;clip-rule:evenodd;fill:url(#curve0_00000179617475422145105450000018107282073104237725_);}
	.st6{fill-rule:evenodd;clip-rule:evenodd;fill:url(#curve4_00000165923123746289932130000004241735922290998955_);}
	.st7{fill-rule:evenodd;clip-rule:evenodd;fill:url(#curve3_00000145033569328575641230000015704922555292950927_);}
	.st8{fill-rule:evenodd;clip-rule:evenodd;fill:#FFC001;}
	.st9{fill-rule:evenodd;clip-rule:evenodd;fill:url(#curve1_00000130640663756454344160000016310879079244577665_);}
	.st10{fill-rule:evenodd;clip-rule:evenodd;fill:url(#curve0_00000016770994320966005160000005874605970196302518_);}
	.st11{fill:#FFFFFF;stroke:#000000;stroke-width:2;stroke-miterlimit:10;}
</style>
<g>
	
		<linearGradient id="curve6_00000150809072082170160240000015555554086321971610_" gradientUnits="userSpaceOnUse" x1="83.8621" y1="61" x2="83.8621" y2="36.7059" gradientTransform="matrix(1 0 0 -1 0 130)">
		<stop  offset="0" style="stop-color:#B3C0CD"/>
		<stop  offset="1" style="stop-color:#717F8F"/>
	</linearGradient>
	
		<path id="curve6" style="fill-rule:evenodd;clip-rule:evenodd;fill:url(#curve6_00000150809072082170160240000015555554086321971610_);" d="
		M108.14,114.12c2.07-2.06,5.24-3.47,8.83-3.47c6.07,0,11.03,3.9,11.03,8.68c0,4.77-4.97,8.68-11.03,8.68
		c-3.59,0-6.76-1.41-8.83-3.47H92.69c0,1.95-1.93,3.47-4.41,3.47h-8.83c-2.48,0-4.41-1.52-4.41-3.47H59.59
		c-2.07,2.06-5.24,3.47-8.83,3.47c-6.07,0-11.03-3.9-11.03-8.68c0-4.77,4.97-8.68,11.03-8.68c3.59,0,6.76,1.41,8.83,3.47h15.45
		V75.94h-4.41c-2.48,0-4.41-1.52-4.41-3.47V69h35.31v3.47c0,1.95-1.93,3.47-4.41,3.47h-4.41v38.18H108.14z"/>
	
		<linearGradient id="curve5_00000117654232002633398150000003691449805810253759_" gradientUnits="userSpaceOnUse" x1="66.2069" y1="31.35" x2="83.8622" y2="31.35" gradientTransform="matrix(1 0 0 -1 0 130)">
		<stop  offset="0" style="stop-color:#B3C0CD"/>
		<stop  offset="1" style="stop-color:#91A0AF"/>
	</linearGradient>
	
		<path id="curve5" style="fill-rule:evenodd;clip-rule:evenodd;fill:url(#curve5_00000117654232002633398150000003691449805810253759_);" d="
		M66.21,69.3h35.31v3.45c0,1.94-1.93,3.45-4.41,3.45h-4.41v48.34c0,1.94-1.93,3.45-4.41,3.45h-8.83c-2.48,0-4.41-1.51-4.41-3.45
		V76.21h-4.41c-2.48,0-4.41-1.51-4.41-3.45V69.3z"/>
	
		<linearGradient id="curve4_00000013881528823201142880000009154623878191186615_" gradientUnits="userSpaceOnUse" x1="75.0345" y1="45.6586" x2="92.6897" y2="45.6586" gradientTransform="matrix(1 0 0 -1 0 130)">
		<stop  offset="0" style="stop-color:#A0ADBB"/>
		<stop  offset="1" style="stop-color:#7A8898"/>
	</linearGradient>
	
		<path id="curve4" style="fill-rule:evenodd;clip-rule:evenodd;fill:url(#curve4_00000013881528823201142880000009154623878191186615_);" d="
		M92.69,80.41H75.03v-4.41h17.66V80.41z M92.69,88.28v4.41H75.03v-4.41H92.69z"/>
	
		<linearGradient id="curve3_00000176765109965243712280000000756028301723593648_" gradientUnits="userSpaceOnUse" x1="18.4988" y1="141.5484" x2="81.8741" y2="40.031" gradientTransform="matrix(1 0 0 -1 0 130)">
		<stop  offset="0" style="stop-color:#47B3F2"/>
		<stop  offset="1" style="stop-color:#16A0EE"/>
	</linearGradient>
	
		<path id="curve3" style="fill-rule:evenodd;clip-rule:evenodd;fill:url(#curve3_00000176765109965243712280000000756028301723593648_);" d="
		M17.66,0H97.1c9.79,0,17.66,7.86,17.66,17.66H44.14c-4.83,0-8.83,4-8.83,8.83v48.55c0,4.83,4,8.83,8.83,8.83h70.62
		c0,9.79-7.86,17.66-17.66,17.66H17.66C8,101.52,0,93.66,0,83.86V17.66C0,7.86,8,0,17.66,0z"/>
	
		<linearGradient id="curve2_00000031200116674682110210000008741501138296482217_" gradientUnits="userSpaceOnUse" x1="30.8757" y1="112.348" x2="30.9238" y2="46.1283" gradientTransform="matrix(1 0 0 -1 0 130)">
		<stop  offset="0" style="stop-color:#129EEE"/>
		<stop  offset="1" style="stop-color:#0F7DBC"/>
	</linearGradient>
	
		<path id="curve2" style="fill-rule:evenodd;clip-rule:evenodd;fill:url(#curve2_00000031200116674682110210000008741501138296482217_);" d="
		M44.14,17.66c-4.83,0-8.83,4-8.83,8.83v48.55c0,4.83,4,8.83,8.83,8.83H26.48c-4.83,0-8.83-4-8.83-8.83V26.48
		c0-4.83,4-8.83,8.83-8.83H44.14z"/>
	
		<linearGradient id="curve0_00000136386169509748989680000008038973802102732944_" gradientUnits="userSpaceOnUse" x1="75.0345" y1="26.2759" x2="92.6897" y2="26.2759" gradientTransform="matrix(1 0 0 -1 0 130)">
		<stop  offset="0" style="stop-color:#A0ADBB"/>
		<stop  offset="1" style="stop-color:#7A8898"/>
	</linearGradient>
	
		<path id="curve0" style="fill-rule:evenodd;clip-rule:evenodd;fill:url(#curve0_00000136386169509748989680000008038973802102732944_);" d="
		M92.69,101.52v4.41H75.03v-4.41H92.69z"/>
	<g>
		
			<linearGradient id="curve4_00000129180556512122954360000001858832540813366454_" gradientUnits="userSpaceOnUse" x1="52.9987" y1="109.7009" x2="114.0653" y2="65.2887" gradientTransform="matrix(1 0 0 -1 0 130)">
			<stop  offset="0" style="stop-color:#F6F7F9"/>
			<stop  offset="0.2314" style="stop-color:#E8ECF1"/>
			<stop  offset="1" style="stop-color:#D9E1E9"/>
		</linearGradient>
		
			<path id="curve4_00000020395970063708222050000002691271900311510966_" style="fill-rule:evenodd;clip-rule:evenodd;fill:url(#curve4_00000129180556512122954360000001858832540813366454_);" d="
			M53.33,19.85h61.07v45.8H53.33V19.85z"/>
		
			<linearGradient id="curve3_00000098195742477510533940000016256853519072410291_" gradientUnits="userSpaceOnUse" x1="83.862" y1="108.2465" x2="83.8621" y2="73.8963" gradientTransform="matrix(1 0 0 -1 0 130)">
			<stop  offset="0" style="stop-color:#19A1EE"/>
			<stop  offset="1" style="stop-color:#4EB6F2"/>
		</linearGradient>
		
			<path id="curve3_00000173155167773710020280000007721859474231000485_" style="fill-rule:evenodd;clip-rule:evenodd;fill:url(#curve3_00000098195742477510533940000016256853519072410291_);" d="
			M55.24,21.75h57.25v41.98H55.24V21.75z"/>
		<path id="curve2_00000091004318071843917670000006958508009757336998_" class="st8" d="M78.14,25.57c4.23,0,7.63,3.4,7.63,7.63
			s-3.4,7.63-7.63,7.63s-7.63-3.4-7.63-7.63S73.9,25.57,78.14,25.57z"/>
		
			<linearGradient id="curve1_00000006695697984787523600000002199141206740592018_" gradientUnits="userSpaceOnUse" x1="68.3921" y1="95.1477" x2="76.2688" y2="82.0198" gradientTransform="matrix(1 0 0 -1 0 130)">
			<stop  offset="0" style="stop-color:#77DA26"/>
			<stop  offset="1" style="stop-color:#59A31D"/>
		</linearGradient>
		
			<path id="curve1" style="fill-rule:evenodd;clip-rule:evenodd;fill:url(#curve1_00000006695697984787523600000002199141206740592018_);" d="
			M112.49,57.53v6.2H55.24V46.68c3.46-2.39,7.75-3.94,13-3.94C78.14,42.75,92.93,51.75,112.49,57.53z"/>
		
			<linearGradient id="curve0_00000062912868419041090230000013890767318891609787_" gradientUnits="userSpaceOnUse" x1="88.3827" y1="96.426" x2="83.9117" y2="72.5808" gradientTransform="matrix(1 0 0 -1 0 130)">
			<stop  offset="0" style="stop-color:#77DA26"/>
			<stop  offset="1" style="stop-color:#64B620"/>
		</linearGradient>
		
			<path id="curve0_00000025408201897339866160000010438575302290405048_" style="fill-rule:evenodd;clip-rule:evenodd;fill:url(#curve0_00000062912868419041090230000013890767318891609787_);" d="
			M112.49,45.07v18.67H55.24V51.63c26.66,12.46,38.88-13.54,49.44-13.54C108.49,38.09,112.55,43.64,112.49,45.07z"/>
	</g>
</g>
<path class="st11" d="M115.1,59.87l2.06,2.06l-6.21,6.21l-2.06-2.06L115.1,59.87z M105.16,58.74l3.85,3.85l2.61-2.61l-3.85-3.85
	l3.82-3.82l-11.21-0.96l0.96,11.2L105.16,58.74z M114.43,68.02l3.85,3.85l-3.82,3.82l11.21,0.96l-0.96-11.21l-3.82,3.82l-3.85-3.85
	L114.43,68.02z"/>
</svg>
